# xmcd
#
# Track frame offsets: 
#        150
#        17840
#        38657
#        60642
#        87455
#        107950
#        131215
#        156662
#        171707
#        192365
#        212095
#        242415
#        266132
#        294785
#
# Disc length: 4140 seconds
#
# Revision: 0
# Processed by: cddbd v1.5.2PL0 Copyright (c) Steve Scherf et al.
# Submitted via: ExactAudioCopy v0.99pb4
#
DISCID=d5102a0e
DTITLE=Various Artist - Vibe! (The Sound Of New Jack Swing)
DYEAR=1993
DGENRE=R&B
TTITLE0=Mary J. Blige - Love No Limit (Puff Daddy Mix)
TTITLE1=Charlie Wilson - Realize
TTITLE2=Bobby Brown - That's The Way Love Is
TTITLE3=SWV - Right Here (Power Mix)
TTITLE4=Shomari - If You Feel The Need
TTITLE5=Jermaine Jackson - I Dream, I Dream
TTITLE6=Rhythm Within - Don't Keep Me Waiting
TTITLE7=Solid State Sound - Do You Wanna Chill With Me?
TTITLE8=Ready For The World - Yo! That's A Lot Of Body
TTITLE9=Father MC - One Nite Stand (Daddy Radio Remix)
TTITLE10=Bubba - I Like Your Style (Extended Vocal Mix)
TTITLE11=T.L.C. - Baby-Baby-Baby
TTITLE12=Brotherhood Creed - Helluva
TTITLE13=Lorenzo - Real Love
EXTD=
EXTT0=
EXTT1=
EXTT2=
EXTT3=
EXTT4=
EXTT5=
EXTT6=
EXTT7=
EXTT8=
EXTT9=
EXTT10=
EXTT11=
EXTT12=
EXTT13=
PLAYORDER=
